<svg width="72" height="72" viewBox="0 0 72 72" fill="none" xmlns="http://www.w3.org/2000/svg">
<g id="mingcute:eye-2-line" clip-path="url(#clip0_252_46)">
<g id="Group">
<path id="Vector" fill-rule="evenodd" clip-rule="evenodd" d="M12 36.003V36C12.009 35.952 12.051 35.688 12.285 35.169C12.543 34.596 12.96 33.876 13.557 33.045C14.751 31.386 16.536 29.469 18.792 27.651C23.331 23.988 29.436 21 36 21C42.564 21 48.669 23.988 53.208 27.648C55.464 29.466 57.249 31.383 58.443 33.042C59.043 33.873 59.457 34.593 59.715 35.166C59.949 35.685 59.991 35.949 60 35.997V36C59.991 36.048 59.949 36.312 59.715 36.831C59.3609 37.5786 58.9349 38.2899 58.443 38.955C57.249 40.614 55.464 42.531 53.208 44.349C48.672 48.012 42.564 51 36 51C29.436 51 23.331 48.012 18.792 44.352C16.536 42.534 14.751 40.617 13.557 38.958C13.0647 38.2932 12.6387 37.5818 12.285 36.834C12.1539 36.5707 12.0581 36.2913 12 36.003ZM36 15C27.651 15 20.256 18.762 15.027 22.977C12.396 25.095 10.227 27.399 8.688 29.538C7.95924 30.528 7.33112 31.5882 6.813 32.703C6.369 33.69 6 34.833 6 36C6 37.164 6.369 38.313 6.81 39.297C7.275 40.323 7.92 41.397 8.688 42.462C10.227 44.601 12.396 46.902 15.027 49.023C20.256 53.238 27.651 57 36 57C44.349 57 51.744 53.238 56.973 49.023C59.604 46.905 61.773 44.601 63.312 42.462C64.083 41.394 64.725 40.323 65.187 39.297C65.631 38.313 66 37.167 66 36C66 34.836 65.631 33.687 65.19 32.703C64.6702 31.5885 64.0411 30.5283 63.312 29.538C61.773 27.399 59.604 25.098 56.973 22.977C51.744 18.762 44.349 15 36 15ZM33 36C33 35.2044 33.3161 34.4413 33.8787 33.8787C34.4413 33.3161 35.2044 33 36 33C36.7956 33 37.5587 33.3161 38.1213 33.8787C38.6839 34.4413 39 35.2044 39 36C39 36.7956 38.6839 37.5587 38.1213 38.1213C37.5587 38.6839 36.7956 39 36 39C35.2044 39 34.4413 38.6839 33.8787 38.1213C33.3161 37.5587 33 36.7956 33 36ZM36 27C33.6131 27 31.3239 27.9482 29.636 29.636C27.9482 31.3239 27 33.6131 27 36C27 38.3869 27.9482 40.6761 29.636 42.364C31.3239 44.0518 33.6131 45 36 45C38.3869 45 40.6761 44.0518 42.364 42.364C44.0518 40.6761 45 38.3869 45 36C45 33.6131 44.0518 31.3239 42.364 29.636C40.6761 27.9482 38.3869 27 36 27Z" fill="#26AB8C"/>
</g>
</g>
<defs>
<clipPath id="clip0_252_46">
<rect width="72" height="72" fill="white"/>
</clipPath>
</defs>
</svg>
