<svg width="48" height="48" viewBox="0 0 48 48" fill="none" xmlns="http://www.w3.org/2000/svg">
<g id="akar-icons:google-fill">
<path id="Vector" d="M42.9121 20.308C43.1581 21.626 43.2921 23.004 43.2921 24.442C43.2921 35.69 35.7641 43.688 24.3941 43.688C21.8084 43.6888 19.2479 43.1801 16.8589 42.191C14.4698 41.2018 12.2991 39.7516 10.4708 37.9233C8.64242 36.0949 7.19225 33.9242 6.20311 31.5352C5.21397 29.1462 4.70527 26.5857 4.70606 24C4.70527 21.4143 5.21397 18.8538 6.20311 16.4648C7.19225 14.0758 8.64242 11.9051 10.4708 10.0767C12.2991 8.24838 14.4698 6.7982 16.8589 5.80907C19.2479 4.81993 21.8084 4.31122 24.3941 4.31201C29.7101 4.31201 34.1521 6.26801 37.5601 9.44401L32.0101 14.994V14.98C29.9441 13.012 27.3221 12.002 24.3941 12.002C17.8981 12.002 12.6181 17.49 12.6181 23.988C12.6181 30.484 17.8981 35.984 24.3941 35.984C30.2881 35.984 34.3001 32.614 35.1241 27.986H24.3941V20.308H42.9141H42.9121Z" fill="#231F20"/>
</g>
</svg>
