<svg width="72" height="72" viewBox="0 0 72 72" fill="none" xmlns="http://www.w3.org/2000/svg">
<g id="mingcute:rocket-line" clip-path="url(#clip0_252_50)">
<g id="Group">
<path id="Vector" d="M55.2602 8.391L56.4182 8.559C58.2182 8.844 60.2342 9.321 61.4732 10.56C62.7152 11.802 63.1922 13.818 63.4772 15.618L63.6452 16.773C64.0232 19.503 64.1222 23.082 63.4772 27.054C62.2052 34.893 58.0322 44.244 47.5532 51.489C47.5049 52.0246 47.4879 52.5625 47.5022 53.1L47.5532 54.729C47.5832 55.815 47.5652 56.898 47.2652 57.939C46.6952 59.919 44.6642 61.224 42.7652 62.16L41.8352 62.601L40.6352 63.129L39.8162 63.459C37.6952 64.269 35.1362 64.836 33.4622 63.159C32.7032 62.4 32.3522 61.368 32.0702 60.336L31.9322 59.82C31.4522 57.999 30.9092 56.19 30.2312 54.438C30.0439 54.6655 29.8457 54.8837 29.6372 55.092C28.0022 56.724 25.7852 57.546 23.5682 58.182L22.0952 58.587L20.6252 58.977L19.1912 59.337L17.8952 59.637L16.3442 59.967L15.3752 60.156C14.8918 60.2462 14.3937 60.2173 13.924 60.0718C13.4543 59.9263 13.0271 59.6685 12.6794 59.3208C12.3317 58.9731 12.0739 58.5459 11.9284 58.0762C11.7829 57.6065 11.754 57.1084 11.8442 56.625L12.1772 54.972L12.5642 53.238L12.9362 51.708L13.6112 49.173C14.2802 46.713 15.0932 44.178 16.9112 42.363L17.2082 42.078L14.9192 41.256L12.6182 40.464C11.2712 40.02 9.85521 39.552 8.87721 38.574C7.08921 36.786 7.84821 33.996 8.73921 31.803L9.23721 30.642L9.64821 29.739C10.5992 27.717 11.9492 25.389 14.0972 24.771C15.1382 24.471 16.2182 24.453 17.3072 24.48L18.9362 24.534C19.4762 24.543 20.0162 24.534 20.5472 24.483C27.7892 14.004 37.1432 9.831 44.9822 8.559C48.3814 7.99861 51.8445 7.94201 55.2602 8.391ZM45.9422 14.481C39.3482 15.552 31.3352 19.083 25.0832 28.488C24.3242 29.628 23.0432 30.171 21.7382 30.378C21.0002 30.498 20.2562 30.528 19.5092 30.528L17.2682 30.495C16.8962 30.495 16.5212 30.495 16.1492 30.513C15.2372 31.725 14.6012 33.165 14.1242 34.596L18.6242 36.231L20.4752 36.93C23.8592 38.256 27.1352 39.861 29.6552 42.381C33.9002 46.626 36.0572 52.179 37.6172 57.852C38.9852 57.372 40.3592 56.76 41.5232 55.887L41.5412 54.768L41.5082 52.53C41.5082 51.786 41.5382 51.042 41.6582 50.298C41.8622 48.993 42.4082 47.712 43.5482 46.953C52.9532 40.701 56.4842 32.688 57.5552 26.094C58.0952 22.764 58.0052 19.788 57.7022 17.595C57.5859 16.6852 57.3922 15.7869 57.1232 14.91C56.2462 14.642 55.348 14.4493 54.4382 14.334C51.6141 13.9679 48.7516 14.0154 45.9422 14.481ZM21.1502 46.605C20.1002 47.874 19.6112 49.539 19.2182 51.189L18.8942 52.593L18.7292 53.271L20.8112 52.782C22.4612 52.392 24.1292 51.897 25.3952 50.847C25.9577 50.2841 26.2736 49.5208 26.2733 48.7249C26.273 47.9291 25.9566 47.166 25.3937 46.6035C24.8308 46.041 24.0675 45.7251 23.2717 45.7254C22.4758 45.7257 21.7127 46.0421 21.1502 46.605ZM38.1212 25.395C38.6783 24.8377 39.3397 24.3957 40.0676 24.094C40.7955 23.7923 41.5757 23.637 42.3636 23.6368C43.1516 23.6367 43.9319 23.7918 44.6599 24.0932C45.3879 24.3946 46.0494 24.8364 46.6067 25.3935C47.164 25.9506 47.6061 26.6119 47.9077 27.3399C48.2094 28.0678 48.3647 28.848 48.3649 29.6359C48.365 30.4239 48.2099 31.2042 47.9085 31.9322C47.6071 32.6602 47.1653 33.3217 46.6082 33.879C46.0509 34.4363 45.3894 34.8783 44.6613 35.1799C43.9332 35.4815 43.1528 35.6367 42.3647 35.6367C40.7731 35.6367 39.2467 35.0044 38.1212 33.879C37.5639 33.3217 37.1219 32.6602 36.8203 31.9321C36.5187 31.204 36.3635 30.4236 36.3635 29.6355C36.3635 28.0439 36.9958 26.5174 38.1212 25.392V25.395Z" fill="#26AB8C"/>
</g>
</g>
<defs>
<clipPath id="clip0_252_50">
<rect width="72" height="72" fill="white"/>
</clipPath>
</defs>
</svg>
