<svg width="48" height="48" viewBox="0 0 48 48" fill="none" xmlns="http://www.w3.org/2000/svg">
<g id="icon/whatsapp">
<path id="vector" d="M24.0755 6.58069C14.1952 6.58069 6.15445 14.3253 6.15097 23.8433C6.14865 26.887 6.97548 29.8576 8.54323 32.474L6 41.4194L15.5028 39.019C18.1462 40.4017 21.0854 41.123 24.0685 41.1209H24.0755C33.9557 41.1209 41.9965 33.3751 42 23.8572C42.0023 19.2469 40.1396 14.9071 36.7544 11.6451C33.3705 8.38185 28.8705 6.58185 24.0755 6.58069ZM24.0755 38.2049H24.0697C21.3964 38.2049 18.7742 37.5128 16.4865 36.2052L15.9406 35.894L10.3037 37.3177L11.8088 32.0222L11.4546 31.4799C9.96686 29.2109 9.17489 26.5565 9.17613 23.8433C9.17961 15.9314 15.864 9.49669 24.0813 9.49669C28.0599 9.49785 31.8004 10.9924 34.6142 13.704C37.428 16.4157 38.976 20.0215 38.9737 23.856C38.9702 31.7679 32.287 38.2049 24.0743 38.2049H24.0755ZM32.2475 27.4572C31.7992 27.2424 29.5974 26.1984 29.1863 26.0532C28.7764 25.9104 28.4779 25.836 28.1795 26.268C27.8822 26.7 27.0228 27.672 26.7627 27.9589C26.5003 28.2469 26.239 28.2817 25.7907 28.0669C25.3425 27.8509 23.899 27.3957 22.1895 25.9255C20.8575 24.7828 19.9587 23.3706 19.6974 22.9375C19.4361 22.5066 19.6695 22.2732 19.8937 22.0584C20.0946 21.8668 20.3419 21.5555 20.5649 21.3035C20.7879 21.0515 20.8622 20.8715 21.0132 20.5835C21.1618 20.2967 21.0875 20.0435 20.9748 19.8287C20.8622 19.6115 19.968 17.4887 19.5929 16.6258C19.2306 15.7851 18.8613 15.8977 18.5861 15.8838C18.3248 15.8722 18.0275 15.8687 17.7267 15.8687C17.4306 15.8687 16.944 15.9767 16.5329 16.4087C16.123 16.8407 14.9652 17.8835 14.9652 20.0064C14.9652 22.1304 16.5701 24.1812 16.7942 24.4692C17.0183 24.756 19.9529 29.1144 24.4459 30.984C25.5143 31.4265 26.3481 31.6924 26.9996 31.8922C28.0726 32.2208 29.0493 32.1732 29.8204 32.0629C30.6797 31.9386 32.4705 31.02 32.8421 30.0132C33.216 29.0064 33.216 28.1424 33.1045 27.9624C32.9954 27.7824 32.6957 27.6744 32.2475 27.4572Z" fill="#231F20"/>
</g>
</svg>
